<?xml version="1.0" encoding="utf-8"?>
<!-- Generator: Adobe Illustrator 18.0.0, SVG Export Plug-In . SVG Version: 6.00 Build 0)  -->
<!DOCTYPE svg PUBLIC "-//W3C//DTD SVG 1.0//EN" "http://www.w3.org/TR/2001/REC-SVG-20010904/DTD/svg10.dtd">
<svg version="1.0" id="Layer_1" xmlns="http://www.w3.org/2000/svg" xmlns:xlink="http://www.w3.org/1999/xlink" x="0px" y="0px"
	 viewBox="59.6 58.9 59.3 61.7" enable-background="new 59.6 58.9 59.3 61.7" xml:space="preserve">
<g>
	<g>
		<path fill="#7BB7E4" d="M63.7,120.6c-0.4,0-0.7-0.1-1.1-0.2c-1.5-0.6-2.3-2.3-1.7-3.9l0.3-0.9c0.6-1.5,2.3-2.3,3.9-1.7
			c1.5,0.6,2.3,2.3,1.7,3.9l-0.3,0.9C66,119.9,64.9,120.6,63.7,120.6z"/>
	</g>
	<g>
		<path fill="#7BB7E4" d="M67.6,110.6c-0.4,0-0.7-0.1-1.1-0.2c-1.5-0.6-2.3-2.3-1.7-3.9l2.2-5.7c0.6-1.5,2.3-2.3,3.9-1.7
			c1.5,0.6,2.3,2.3,1.7,3.9l-2.2,5.7C69.9,109.9,68.8,110.6,67.6,110.6z"/>
	</g>
	<g>
		<path fill="#7BB7E4" d="M72.3,98.6c-0.4,0-0.7-0.1-1.1-0.2c-1.5-0.6-2.3-2.3-1.7-3.9l0.6-1.5c0.6-1.5,2.3-2.3,3.9-1.7
			c1.5,0.6,2.3,2.3,1.7,3.9l-0.6,1.5C74.6,97.9,73.5,98.6,72.3,98.6z"/>
	</g>
	<g>
		<path fill="#7BB7E4" d="M85.3,120.6c-0.4,0-0.7-0.1-1.1-0.2c-1.5-0.6-2.3-2.3-1.7-3.9l1-2.5c0.6-1.5,2.3-2.3,3.9-1.7
			c1.5,0.6,2.3,2.3,1.7,3.9l-1,2.5C87.7,119.9,86.5,120.6,85.3,120.6z"/>
	</g>
	<g>
		<path fill="#7BB7E4" d="M89.3,110.4c-0.4,0-0.7-0.1-1.1-0.2c-1.5-0.6-2.3-2.3-1.7-3.8l1.9-4.8c0.6-1.5,2.3-2.3,3.9-1.7
			c1.5,0.6,2.3,2.3,1.7,3.9l-1.8,4.7C91.7,109.6,90.5,110.4,89.3,110.4z"/>
	</g>
	<g>
		<path fill="#7BB7E4" d="M94.1,98.2c-0.4,0-0.7-0.1-1.1-0.2c-1.5-0.6-2.3-2.3-1.7-3.9l0.4-1.1c0.6-1.5,2.3-2.3,3.9-1.7
			c1.5,0.6,2.3,2.3,1.7,3.9l-0.4,1.1C96.4,97.5,95.3,98.2,94.1,98.2z"/>
	</g>
	<g>
		<path fill="#7BB7E4" d="M74.5,120.6c-0.4,0-0.7-0.1-1.1-0.2c-1.5-0.6-2.3-2.3-1.7-3.9l3.1-8c0.6-1.5,2.3-2.3,3.9-1.7
			c1.5,0.6,2.3,2.3,1.7,3.9l-3.1,8C76.8,119.9,75.7,120.6,74.5,120.6z"/>
	</g>
	<g>
		<path fill="#7BB7E4" d="M80.6,105c-0.4,0-0.7-0.1-1.1-0.2c-1.5-0.6-2.3-2.3-1.7-3.9l0.1-0.1c0.6-1.5,2.3-2.3,3.9-1.7
			c1.5,0.6,2.3,2.3,1.7,3.9l-0.1,0.1C82.9,104.3,81.8,105,80.6,105z"/>
	</g>
	<g>
		<path fill="#7BB7E4" d="M83.4,97.9c-0.4,0-0.7-0.1-1.1-0.2c-1.5-0.6-2.3-2.3-1.7-3.9l0.3-0.8c0.6-1.5,2.3-2.3,3.9-1.7
			s2.3,2.3,1.7,3.9L86.2,96C85.7,97.2,84.6,97.9,83.4,97.9z"/>
	</g>
	<g>
		<path fill="#7BB7E4" d="M96.2,120.6c-0.4,0-0.7-0.1-1.1-0.2c-1.5-0.6-2.3-2.3-1.7-3.9l0.1-0.2c0.6-1.5,2.3-2.3,3.9-1.7
			c1.5,0.6,2.3,2.3,1.7,3.9l-0.1,0.2C98.5,119.9,97.4,120.6,96.2,120.6z"/>
	</g>
	<g>
		<path fill="#7BB7E4" d="M99.1,113c-0.4,0-0.7-0.1-1.1-0.2c-1.5-0.6-2.3-2.3-1.7-3.9l0.5-1.2c0.6-1.5,2.3-2.3,3.9-1.7
			c1.5,0.6,2.3,2.3,1.7,3.9l-0.5,1.2C101.4,112.3,100.3,113,99.1,113z"/>
	</g>
	<g>
		<path fill="#7BB7E4" d="M102.5,104.4c-0.4,0-0.7-0.1-1.1-0.2c-1.5-0.6-2.3-2.3-1.7-3.9l2.8-7.3c0.6-1.5,2.3-2.3,3.9-1.7
			c1.5,0.6,2.3,2.3,1.7,3.9l-2.8,7.3C104.8,103.7,103.7,104.4,102.5,104.4z"/>
	</g>
</g>
<g>
	<path fill="#A7A9AC" d="M114.7,94.3c-0.4,0-0.9-0.1-1.3-0.3c-1.5-0.7-2.1-2.5-1.4-4c0.6-1.2,0.9-2.6,0.9-3.9c0-5-4.1-9.1-9.1-9.1
		c-0.7,0-1.4,0.1-2,0.2L98.5,78L98,74.8c-0.8-5.7-5.7-9.9-11.4-9.9c-5.4,0-10.1,3.8-11.3,9.1l-0.4,1.9L73,76.3
		c-4.4,1-7.5,4.9-7.5,9.4c0,1.5,0.4,3,1.1,4.4c0.8,1.5,0.2,3.3-1.3,4s-3.3,0.2-4-1.3c-1.1-2.2-1.7-4.6-1.7-7.1
		c0-6.7,4.2-12.6,10.4-14.8c2.4-7.1,9.1-12,16.7-12c7.7,0,14.4,5.1,16.7,12.2c0.1,0,0.3,0,0.4,0c8.3,0,15.1,6.8,15.1,15.1
		c0,2.2-0.5,4.4-1.5,6.5C116.9,93.7,115.8,94.3,114.7,94.3z"/>
</g>
</svg>
